<?xml version="1.0" encoding="utf-8"?>
<!-- Generator: Adobe Illustrator 24.0.1, SVG Export Plug-In . SVG Version: 6.00 Build 0)  -->
<svg version="1.1" id="Layer_1" xmlns="http://www.w3.org/2000/svg" xmlns:xlink="http://www.w3.org/1999/xlink" x="0px" y="0px"
	 viewBox="0 0 150.7 48.8" style="enable-background:new 0 0 150.7 48.8;" xml:space="preserve">
<style type="text/css">
	.st0{fill:#F76076;}
	.st1{fill:#49474C;}
	.st2{font-family:'ProximaNova-Extrabld';}
	.st3{font-size:24px;}
</style>
<g>
	<g>
		<path class="st0" d="M30.8,44.6c-3.7,1.6-6.7,2.1-11.1,2.1c-10,0-19-7.2-19-19c0-12.2,9.1-22.9,22.8-22.9
			C34,4.7,41.8,12,41.8,22.2c0,8.7-4.9,14.3-11.8,14.3c-3,0-5-1.5-5.5-4.4h-0.1c-1.8,2.8-4.4,4.4-7.4,4.4c-4.1,0-6.9-3-6.9-8
			c0-7.3,5.3-13.9,14-13.9c2.7,0,6,0.7,7.5,1.5L30,27.5c-0.5,3.1-0.2,4.5,1.4,4.6c2.4,0.1,5.5-2.9,5.5-9.8c0-7.5-5-13.4-14.3-13.4
			c-9,0-17,6.9-17,18.1c0,10.1,6.4,15.6,15.4,15.6c2.9,0,6.2-0.6,8.6-1.8L30.8,44.6z M24.5,20.2c-0.5-0.1-0.9-0.2-1.4-0.2
			c-3.4,0-6,3.5-6,7.5c0,2.1,0.9,3.4,2.5,3.4c1.7,0,3.7-2.1,4.1-5.5L24.5,20.2z"/>
	</g>
</g>
<text transform="matrix(1 0 0 1 46.079 32.7459)" class="st1 st2 st3">Portfolio</text>
</svg>
